inDegrees=no
num_controls=7
num_derivatives=13
num_iterations=111
num_multipliers=7
num_parameters=0
num_slacks=7
num_states=26
objective=5.666297
objective_accelerations=0.641025
objective_balance=0.050425
objective_effort=0.514941
objective_height=4.377538
objective_ligament=0.082369
solver_duration=1331.612016
status=Solve_Succeeded
success=true
DataType=double
version=3
OpenSimVersion=4.4-2022-07-23-0e9fedc
endheader
time	/jointset/ground_pelvis/pelvis_tilt/value	/jointset/ground_pelvis/pelvis_tx/value	/jointset/ground_pelvis/pelvis_ty/value	/jointset/hip_l/hip_flexion_l/value	/jointset/hip_l/hip_adduction_l/value	/jointset/hip_l/hip_rotation_l/value	/jointset/back/lumbar_extension/value	/jointset/patellofemoral_l/patellar_flexion_l/value	/jointset/knee_l/knee_flexion_l/value	/jointset/knee_l/knee_adduction_l/value	/jointset/knee_l/knee_rotation_l/value	/jointset/ankle_l/ankle_angle_l/value	/jointset/subtalar_l/subtalar_angle_l/value	/jointset/ground_pelvis/pelvis_tilt/speed	/jointset/ground_pelvis/pelvis_tx/speed	/jointset/ground_pelvis/pelvis_ty/speed	/jointset/hip_l/hip_flexion_l/speed	/jointset/hip_l/hip_adduction_l/speed	/jointset/hip_l/hip_rotation_l/speed	/jointset/back/lumbar_extension/speed	/jointset/patellofemoral_l/patellar_flexion_l/speed	/jointset/knee_l/knee_flexion_l/speed	/jointset/knee_l/knee_adduction_l/speed	/jointset/knee_l/knee_rotation_l/speed	/jointset/ankle_l/ankle_angle_l/speed	/jointset/subtalar_l/subtalar_angle_l/speed	/forceset/tau_hip_flexion_l	/forceset/tau_hip_adduction_l	/forceset/tau_hip_rotation_l	/forceset/tau_knee_flexion_l	/forceset/tau_ankle_angle_l	/forceset/tau_subtalar_angle_l	/forceset/tau_lumbar_extension	lambda_cid13_p0	lambda_cid13_p1	lambda_cid13_p2	lambda_cid13_p3	lambda_cid13_p4	lambda_cid13_p5	lambda_cid14_p0	/jointset/ground_pelvis/pelvis_tilt/accel	/jointset/ground_pelvis/pelvis_tx/accel	/jointset/ground_pelvis/pelvis_ty/accel	/jointset/hip_l/hip_flexion_l/accel	/jointset/hip_l/hip_adduction_l/accel	/jointset/hip_l/hip_rotation_l/accel	/jointset/back/lumbar_extension/accel	/jointset/patellofemoral_l/patellar_flexion_l/accel	/jointset/knee_l/knee_flexion_l/accel	/jointset/knee_l/knee_adduction_l/accel	/jointset/knee_l/knee_rotation_l/accel	/jointset/ankle_l/ankle_angle_l/accel	/jointset/subtalar_l/subtalar_angle_l/accel	gamma_cid13_p0	gamma_cid13_p1	gamma_cid13_p2	gamma_cid13_p3	gamma_cid13_p4	gamma_cid13_p5	gamma_cid14_p0
0	-0.1582138989565441	0.05784858678657494	0.8979339692818256	0.3774920279260975	-0.2600728729508258	-0.2569263873759559	-0.0126506700172305	0.03223623128431212	0.03223623128433527	-0.1745317667408153	0.1592184822966932	-0.04231376238535053	-0.01038410246870133	0	0	0	0	0	0	0	0	0	0	0	0	0	0.1391869197552045	-0.04508381321067156	-0.04304585646209572	-0.2620397703556325	0.2266586021857714	-0.05011521880053346	-0.09159870102234006	29.90703471859787	10.12409877475553	5.298928616110538	26.45217155111425	-587.0191633755005	-54.30625869882497	-38.60098469329424	-5.030959098361429	-2.911136800210548	-1.230661168501898	13.85601834640309	-1.053620660017837	2.511495711947019	-6.160903755009143	8.34551821426583	8.34551821426515	0.1280666238778156	0.3009172258371455	-0.4600864486560797	-1.18689361775044	-9.531010062498252e-10	9.835703468169957e-08	3.081921318716341e-08	-1.50036890528062e-08	1.283846298001595e-07	5.773730498115916e-08	-2.982700483268097e-09
0.01	-0.1584577513187119	0.0577050292402106	0.8978737449950941	0.3781683951647395	-0.2601258253882289	-0.2568013072865256	-0.01295971904139046	0.0326438571200359	0.03264385711993525	-0.1745281599646751	0.1592309449838403	-0.04233815434986785	-0.01044401312632096	-0.04854177365287909	-0.02855216044633311	-0.01200017040872026	0.1346144807650043	-0.01054934807621891	0.02490961517121188	-0.06136762710877485	0.08115059122466478	0.08115059122466786	0.0006927390929637475	0.002473396631596279	-0.004824156279598741	-0.01192717090834929	0.1341594663973188	-0.05480392318292372	-0.04225872478130556	-0.2580048121671858	0.2210203041037971	-0.03783722424936605	-0.08713715434187433	28.57186754943224	5.299671563912981	5.754953590759678	25.80430425478585	-588.1102046057566	-63.71838420157896	-38.6130920567786	-4.731487762752777	-2.803356340497702	-1.177966259319974	13.16531426913162	-1.049434423337502	2.464731806831828	-6.058365529526932	7.943643787677773	7.943643787679798	0.03560118409483797	0.2176789046253772	-0.4854434440674621	-1.187403924103221	-1.987176341800517e-08	1.065011572047739e-07	6.708733211984413e-08	-2.167581770533549e-11	3.971410752843421e-09	6.382786652358821e-08	-9.233168545804732e-09
0.02	-0.1591801616702752	0.05728072995465767	0.8976948647478208	0.3801711374764587	-0.2602830398147667	-0.2564303235679615	-0.01386917900483915	0.03385175171004121	0.03385175171005633	-0.1745184810667089	0.1592675672421461	-0.0424091605224759	-0.0106215505123712	-0.09571159786564698	-0.05614834783771761	-0.02373119210836061	0.2652750146334462	-0.02085239782899869	0.04918072582733773	-0.1200821878462211	0.1600537508937594	0.1600537508937658	0.001214423469567946	0.004831914175339092	-0.009322841617404773	-0.02352534568569758	0.1291320130387894	-0.064524033155005	-0.04147159309920472	-0.2539698539792571	0.2153820060217372	-0.02555922969807052	-0.08267560766201354	27.31050046813064	0.4626958970051541	6.212554396319173	25.11315691919668	-588.0167695200288	-73.04314327933115	-38.64878916694377	-4.756569210339771	-2.719942189219713	-1.176831426685858	13.06522896708977	-1.0043609953302	2.383794808929906	-5.630290480743425	7.896031903151712	7.896031903151075	0.09385568060547585	0.2779414082663999	-0.3949922602962034	-1.121094391550114	-3.879042582976051e-08	1.146452797278481e-07	1.033554510525249e-07	1.496033741739553e-08	-1.204418082944726e-07	6.991842806601727e-08	-1.548363660834137e-08
0.03	-0.1603677227466153	0.05658532742121629	0.8973997527435562	0.3834612567728664	-0.2605417774406873	-0.2558197598750914	-0.01535223659838366	0.03583775119160636	0.03583775119160607	-0.1745040289310547	0.1593271931088079	-0.04252328718331885	-0.01091310175635741	-0.1415594731755692	-0.08276212972409483	-0.03526639704762802	0.3920785617348051	-0.03084022905020062	0.07283319522649175	-0.1761034517081571	0.2367827030266514	0.2367827030266564	0.00165867011037347	0.007067495086143742	-0.01342960127883783	-0.03471242471844208	0.1236153532719677	-0.06025871231940828	-0.04088748779901467	-0.2504781620518435	0.2141712245908901	-0.02775268931351643	-0.07788578511509135	26.91226347068432	1.398799272402398	6.161825221894484	24.06467475533179	-587.7223156590851	-70.36917183438419	-38.70692053295521	-4.462730732593492	-2.606588763753078	-1.138167863605711	12.38736710800612	-0.9877718602587977	2.341135270654223	-5.524162464764681	7.50681363235408	7.506813632355677	0.01713235329287872	0.1924880531336229	-0.407584408854882	-1.106672613375991	-5.69562680239207e-08	1.259323549242863e-07	1.329354247136187e-07	3.048944318057215e-08	-2.247017919226828e-07	6.944041981197917e-08	-2.008663171354454e-08
